<svg id="Layer_1" data-name="Layer 1" xmlns="http://www.w3.org/2000/svg" viewBox="0 0 85.04 85.04">
  <defs>
    <style>
      .cls-1 {
        fill: #404041;
        stroke: #404041;
        stroke-width: 2; /* Tăng độ dày nét */
      }
      .cls-2 {
        fill: #415695;
        stroke: #415695;
        stroke-width: 2; /* Tăng độ dày nét */
      }
    </style>
  </defs>
  <path class="cls-1" d="M26.93,53.27a6.24,6.24,0,1,0-5.49,0C16,54.6,12,59.9,12,66.22a.51.51,0,0,0,.5.5H35.81a.5.5,0,0,0,.5-.5C36.31,59.93,32.3,54.66,26.93,53.27Zm-8-5.59a5.24,5.24,0,1,1,5.24,5.23A5.25,5.25,0,0,1,19,47.68Zm-6,18c.24-6.56,5.16-11.81,11.16-11.81s10.93,5.25,11.17,11.81Z"/>
  <path class="cls-1" d="M63.68,53.27a6.23,6.23,0,1,0-5.49,0c-5.41,1.35-9.47,6.65-9.47,13a.51.51,0,0,0,.5.5H72.57a.51.51,0,0,0,.5-.5C73.07,59.93,69.05,54.66,63.68,53.27Zm-8-5.59A5.23,5.23,0,1,1,61,52.91,5.24,5.24,0,0,1,55.73,47.68Zm-6,18C50,59.16,54.89,53.91,60.9,53.91s10.92,5.25,11.16,11.81Z"/>
  <circle class="cls-2" cx="51.5" cy="35.51" r="0.98"/>
  <path class="cls-1" d="M52.45,46.64a.81.81,0,0,1-.64-.3l-4.08-4.7H39a2.92,2.92,0,0,1-2.92-2.91V38h1v.74A1.92,1.92,0,0,0,39,40.64h8.77a1,1,0,0,1,.74.34l3.84,4.43V41.62a1,1,0,0,1,1-1h1a1.92,1.92,0,0,0,1.92-1.91V31.84a1.92,1.92,0,0,0-1.92-1.91H47.19v-1h7.08a2.92,2.92,0,0,1,2.92,2.91v6.89a2.92,2.92,0,0,1-2.92,2.91h-1l0,4.14a.86.86,0,0,1-.56.81A1.12,1.12,0,0,1,52.45,46.64Z"/>
  <path class="cls-1" d="M31.29,43.49a1.12,1.12,0,0,1-.31-.05.86.86,0,0,1-.56-.81V38.47l-1,0a2.92,2.92,0,0,1-2.92-2.91V28.69a2.92,2.92,0,0,1,2.92-2.91h15.3a2.92,2.92,0,0,1,2.92,2.91v6.89a2.92,2.92,0,0,1-2.92,2.91H36l-4.07,4.7A.81.81,0,0,1,31.29,43.49ZM29.47,26.78a1.92,1.92,0,0,0-1.92,1.91v6.89a1.92,1.92,0,0,0,1.92,1.91h1a1,1,0,0,1,1,1v3.79l3.84-4.43a1,1,0,0,1,.74-.34h8.77a1.92,1.92,0,0,0,1.92-1.91V28.69a1.92,1.92,0,0,0-1.92-1.91Z"/>
  <circle class="cls-2" cx="37.12" cy="32.36" r="0.98"/>
  <circle class="cls-2" cx="42.01" cy="32.36" r="0.98"/>
  <circle class="cls-2" cx="32.23" cy="32.36" r="0.98"/>
</svg>
